<svg id="Capa_1" data-name="Capa 1" xmlns="http://www.w3.org/2000/svg" viewBox="0 0 275.72 187.59"><title>beef</title><path d="M284.56,173.8c-1.39,16.94-9.3,30.24-22.76,40.33-11.16,8.35-24,12.75-37.58,15q-68.88,11.1-124.45-31.24A111,111,0,0,1,88.11,187.5,90.09,90.09,0,0,0,48.33,164c-10.95-3.18-21.15-7.86-29.72-15.57-6.07-5.47-9.88-11.93-9.23-20.51.32-4.28.11-8.61.15-12.91.41-7.88.08-15.77.17-23.65,0-3.56,0-7.12,0-10.6,1-.34,1.23.25,1.44.68C15.61,90.61,23.32,96.31,32,101a75,75,0,0,0,16.47,6.56c12.55,3.31,23.45,9.69,33.64,17.51,5.15,3.94,9.21,9,14.18,13.18a160,160,0,0,0,36.52,23,150.25,150.25,0,0,0,40.12,11.9,146.42,146.42,0,0,0,28.12,1.9c14.74-.62,29.29-2.49,43.19-7.83,14.85-5.69,26.67-14.95,34.32-29.1a56.43,56.43,0,0,0,5.16-15c.18-.85-.13-2.11,1.33-2.25V134.4a5.48,5.48,0,0,0-.26,2.89c0,11.2,0,22.39,0,33.58A7.62,7.62,0,0,1,284.56,173.8Z" transform="translate(-9.31 -43.8)" fill="#d05241"/><path d="M21.78,77.62c.12-4.05,3.07-7.59,6.87-10.51,7.11-5.46,15.47-8.1,24-10.24C66,53.56,79.54,54,93.08,54.15a6.49,6.49,0,0,1,3.09.8c1.85,1,2.15,2.62.76,4.22-1.53,1.77-3.67,2.5-5.83,3.14C79.17,65.85,67,68.68,55.21,72.54c-5,1.62-9.79,3.57-14,6.79-3.33,2.56-6.21,5.45-6.17,10.15,0,1.89-1.37,2.08-2.86,1.83C27,90.4,21.78,84.07,21.78,77.62Z" transform="translate(-9.31 -43.8)" fill="#e46353"/><path d="M83.58,68.89c8.54-3.31,17.23-4,26-.66a17.4,17.4,0,0,1,6.78,4.22A9.37,9.37,0,0,1,119,80.57a26.49,26.49,0,0,0,1.65,14c2.88,7.19.56,12.59-6.59,15.59a34.52,34.52,0,0,1-12.4,2.21,53.38,53.38,0,0,1-24.19-6.13C68.49,101.62,60,96.33,51.29,91.31a8.9,8.9,0,0,1-3-2.67c-1.29-1.92-1.17-3.7.68-5.22a17.57,17.57,0,0,1,4.68-2.59C63.63,76.83,73.57,72.78,83.58,68.89Z" transform="translate(-9.31 -43.8)" fill="#e46353"/><path d="M125.57,53.78a16,16,0,0,1,9.31-2.39A16.61,16.61,0,0,1,144.72,54c3.15,2.09,3.48,5.15,1,8-4.47,5-14.32,6.51-20,3C120.54,61.85,120.47,56.92,125.57,53.78Z" transform="translate(-9.31 -43.8)" fill="#e46353"/><path d="M216.05,116.19c-2,3.62-3.85,7.29-5.81,10.91a95.72,95.72,0,0,0-6.16,12.53,16.19,16.19,0,0,0,0,12.05c.37.91.65,1.86,1,2.8,1.87,6,.12,9.12-6,10.82a30.28,30.28,0,0,1-8.54,1,154.06,154.06,0,0,1-47.91-11.09c-9-3.66-17.57-8.08-25.08-14.35a27.42,27.42,0,0,1-6.76-7.94c-2.85-5.3-2.21-10.25,2-14.49,6.23-6.21,14-8,22.47-7.42,8.95.55,16.94,4.39,25.11,7.52,13.88,5.31,27.29,4.88,40.37-2.46,4.21-2.36,8.63-3.83,13.62-3C216.53,113.46,217.15,114.18,216.05,116.19Z" transform="translate(-9.31 -43.8)" fill="#e46353"/><path d="M153.62,58.87c-3-3.16-2.4-5.16,1.79-6.41,3.06-.91,6.09-.09,9.07.2,21.85,2.14,43.18,6.53,63.5,15.11,1.23.52,2.44,1.13,3.62,1.76.69.37,1.69.68,1.58,1.61s-1,1.2-1.78,1.48c-5.27,1.94-10.82,2.38-16.32,3.12a55.66,55.66,0,0,1-29.24-3.64c-5.17-2.13-10.77-2.54-17.49-2.55-1.73.16-4.58.43-7.44.68-2.52.22-5,.26-7.34-1-1.89-1.06-1.95-2.14-.3-3.46C156.83,62.88,156.86,62.31,153.62,58.87Z" transform="translate(-9.31 -43.8)" fill="#e46353"/><path d="M252.35,135.41a18.06,18.06,0,0,1-3.59,6.25,40.56,40.56,0,0,1-15.2,11.23C227.69,155.38,225,154,223,148a18.52,18.52,0,0,1-1-6.34c0-10.24,6.49-16.78,17.13-17.47a19.59,19.59,0,0,1,8.21.94C252,126.86,253.85,130.68,252.35,135.41Z" transform="translate(-9.31 -43.8)" fill="#e46353"/><path d="M243.06,81a25,25,0,0,1,10.21,8.08,56,56,0,0,1,7.15,13.19c2.09,5.53,1.09,9.88-3.05,13s-9.84,5.21-15.1,1.65c-11.14-7.54-23.74-10.1-37-10-11.31,0-22.48,2-33.76,2.47-8.66.37-17.2-.12-25.31-3.56a24.6,24.6,0,0,1-9.92-7.18c-4.91-6.09-4.22-12.77,1.89-17.69,5.4-4.35,11.79-6.32,18.5-7.39a49.62,49.62,0,0,1,26.43,2.57C194.44,80.59,206,81,218,79.17,226.38,77.9,234.91,77.33,243.06,81Z" transform="translate(-9.31 -43.8)" fill="#e46353"/><path d="M284.25,104.94c-2.64-11.26-9.37-19.81-18-27-12-9.94-26-16-40.73-20.61-26.71-8.34-54.26-11.43-82-12.81a543.87,543.87,0,0,0-55.66-.06C72,45.31,56.34,47,41,51,32.88,53.22,25,56.05,18.1,61.2c-4.68,3.52-8.39,7.87-8.49,14C9.4,88.46,9.53,101.73,9.53,115c.74-.86.41-1.89.42-2.84,0-5.83,0-11.66,0-17.49,0-4.49,0-9,0-14,.91,1.64,1.52,2.81,2.2,3.94C18,94.35,27.25,99.6,37,104.24c6.9,3.26,14.53,4.38,21.48,7.49,10.19,4.57,19.68,10.2,27.74,18,3.79,3.68,7.4,7.57,11.55,10.83a166.16,166.16,0,0,0,44.52,25.39,160.44,160.44,0,0,0,51.22,9.85,147,147,0,0,0,31.66-2.59c13.5-2.52,26.28-6.78,37.35-15.2A57.91,57.91,0,0,0,281,134.44c1.88-4.36,2.75-9,4-13.5V108.56C284.18,107.49,284.54,106.15,284.25,104.94ZM21.93,64.13c5.37-4.39,11.68-6.93,18.24-8.88,12.59-3.74,25.53-5.47,38.59-6.56,12.25-1,24.53-1.27,34.87-1.4,21.14.2,40.31.9,59.39,3.15,20.23,2.39,40.2,6,59.32,13.4,10.85,4.18,21.12,9.4,30,17.06,17.84,15.39,20.92,33.44,11.77,54.49-7.28,16.75-21.2,25.94-38,31.28-16.35,5.2-33.18,6.28-50.22,5-30.29-2.23-57.13-13.25-81.09-31.7-6.41-4.95-11.66-11.18-18-16.2-10.6-8.42-22.23-15-35.43-18.6C41.76,102.54,32.75,98.39,25,91.86a31.8,31.8,0,0,1-6.28-7C13.81,77.35,14.94,69.83,21.93,64.13Z" transform="translate(-9.31 -43.8)" fill="#e46353"/><path d="M55.21,72.54c-5,1.62-9.79,3.57-14,6.79-3.33,2.56-6.21,5.45-6.17,10.15,0,1.89-1.37,2.08-2.86,1.83C27,90.4,21.78,84.07,21.78,77.62c.12-4.05,3.07-7.59,6.87-10.51,7.11-5.46,15.47-8.1,24-10.24C66,53.56,79.54,54,93.08,54.15a6.49,6.49,0,0,1,3.09.8c1.85,1,2.15,2.62.76,4.22-1.53,1.77-3.67,2.5-5.83,3.14C79.17,65.85,67,68.68,55.21,72.54Z" transform="translate(-9.31 -43.8)" fill="#fefefe"/><path d="M114,110.12a34.52,34.52,0,0,1-12.4,2.21,53.38,53.38,0,0,1-24.19-6.13C68.49,101.62,60,96.33,51.29,91.31a8.9,8.9,0,0,1-3-2.67c-1.29-1.92-1.17-3.7.68-5.22a17.57,17.57,0,0,1,4.68-2.59c10-4,19.91-8,29.92-11.94,8.54-3.31,17.23-4,26-.66a17.4,17.4,0,0,1,6.78,4.22A9.37,9.37,0,0,1,119,80.57a26.49,26.49,0,0,0,1.65,14C123.48,101.72,121.16,107.12,114,110.12Z" transform="translate(-9.31 -43.8)" fill="#fefefe"/><path d="M125.57,53.78a16,16,0,0,1,9.31-2.39A16.61,16.61,0,0,1,144.72,54c3.15,2.09,3.48,5.15,1,8-4.47,5-14.32,6.51-20,3C120.54,61.85,120.47,56.92,125.57,53.78Z" transform="translate(-9.31 -43.8)" fill="#fefefe"/><path d="M216.05,116.19c-2,3.62-3.85,7.29-5.81,10.91a95.72,95.72,0,0,0-6.16,12.53,16.19,16.19,0,0,0,0,12.05c.37.91.65,1.86,1,2.8,1.87,6,.12,9.12-6,10.82a30.28,30.28,0,0,1-8.54,1,154.06,154.06,0,0,1-47.91-11.09c-9-3.66-17.57-8.08-25.08-14.35a27.42,27.42,0,0,1-6.76-7.94c-2.85-5.3-2.21-10.25,2-14.49,6.23-6.21,14-8,22.47-7.42,8.95.55,16.94,4.39,25.11,7.52,13.88,5.31,27.29,4.88,40.37-2.46,4.21-2.36,8.63-3.83,13.62-3C216.53,113.46,217.15,114.18,216.05,116.19Z" transform="translate(-9.31 -43.8)" fill="#fefefe"/><path d="M153.62,58.87c-3-3.16-2.4-5.16,1.79-6.41,3.06-.91,6.09-.09,9.07.2,21.85,2.14,43.18,6.53,63.5,15.11,1.23.52,2.44,1.13,3.62,1.76.69.37,1.69.68,1.58,1.61s-1,1.2-1.78,1.48c-5.27,1.94-10.82,2.38-16.32,3.12a55.66,55.66,0,0,1-29.24-3.64c-5.17-2.13-10.77-2.54-17.49-2.55-1.73.16-4.58.43-7.44.68-2.52.22-5,.26-7.34-1-1.89-1.06-1.95-2.14-.3-3.46C156.83,62.88,156.86,62.31,153.62,58.87Z" transform="translate(-9.31 -43.8)" fill="#fefefe"/><path d="M252.35,135.41a18.06,18.06,0,0,1-3.59,6.25,40.56,40.56,0,0,1-15.2,11.23C227.69,155.38,225,154,223,148a18.52,18.52,0,0,1-1-6.34c0-10.24,6.49-16.78,17.13-17.47a19.59,19.59,0,0,1,8.21.94C252,126.86,253.85,130.68,252.35,135.41Z" transform="translate(-9.31 -43.8)" fill="#fefefe"/><path d="M257.37,115.3c-4.27,3.25-9.84,5.21-15.1,1.65-11.14-7.54-23.74-10.1-37-10-11.31,0-22.48,2-33.76,2.47-8.66.37-17.2-.12-25.31-3.56a24.6,24.6,0,0,1-9.92-7.18c-4.91-6.09-4.22-12.77,1.89-17.69,5.4-4.35,11.79-6.32,18.5-7.39a49.62,49.62,0,0,1,26.43,2.57C194.44,80.59,206,81,218,79.17c8.42-1.27,16.95-1.84,25.1,1.84a25,25,0,0,1,10.21,8.08,56,56,0,0,1,7.15,13.19C262.51,107.81,261.51,112.16,257.37,115.3Z" transform="translate(-9.31 -43.8)" fill="#fefefe"/><path d="M216.05,116.19c-2,3.62-3.85,7.29-5.81,10.91a95.72,95.72,0,0,0-6.16,12.53,16.19,16.19,0,0,0,0,12.05c.37.91.65,1.86,1,2.8,1.87,6,.12,9.12-6,10.82a30.28,30.28,0,0,1-8.54,1,154.06,154.06,0,0,1-47.91-11.09c-9-3.66-17.57-8.08-25.08-14.35a27.42,27.42,0,0,1-6.76-7.94c-2.85-5.3-2.21-10.25,2-14.49,6.23-6.21,14-8,22.47-7.42,8.95.55,16.94,4.39,25.11,7.52,13.88,5.31,27.29,4.88,40.37-2.46,4.21-2.36,8.63-3.83,13.62-3C216.53,113.46,217.15,114.18,216.05,116.19Z" transform="translate(-9.31 -43.8)" fill="#e46353"/><path d="M257.37,115.3c-4.27,3.25-9.84,5.21-15.1,1.65-11.14-7.54-23.74-10.1-37-10-11.31,0-22.48,2-33.76,2.47-8.66.37-17.2-.12-25.31-3.56a24.6,24.6,0,0,1-9.92-7.18c-4.91-6.09-4.22-12.77,1.89-17.69,5.4-4.35,11.79-6.32,18.5-7.39a49.62,49.62,0,0,1,26.43,2.57C194.44,80.59,206,81,218,79.17c8.42-1.27,16.95-1.84,25.1,1.84a25,25,0,0,1,10.21,8.08,56,56,0,0,1,7.15,13.19C262.51,107.81,261.51,112.16,257.37,115.3Z" transform="translate(-9.31 -43.8)" fill="#e46353"/><path d="M114,110.12a34.52,34.52,0,0,1-12.4,2.21,53.38,53.38,0,0,1-24.19-6.13C68.49,101.62,60,96.33,51.29,91.31a8.9,8.9,0,0,1-3-2.67c-1.29-1.92-1.17-3.7.68-5.22a17.57,17.57,0,0,1,4.68-2.59c10-4,19.91-8,29.92-11.94,8.54-3.31,17.23-4,26-.66a17.4,17.4,0,0,1,6.78,4.22A9.37,9.37,0,0,1,119,80.57a26.49,26.49,0,0,0,1.65,14C123.48,101.72,121.16,107.12,114,110.12Z" transform="translate(-9.31 -43.8)" fill="#e46353"/><path d="M233.18,71.14c-.1.84-1,1.2-1.78,1.48-5.27,1.94-10.82,2.38-16.32,3.12a55.66,55.66,0,0,1-29.24-3.64c-5.17-2.13-10.77-2.54-17.49-2.55-1.73.16-4.58.43-7.44.68-2.52.22-5,.26-7.34-1-1.89-1.06-1.95-2.14-.3-3.46,3.56-2.86,3.59-3.43.35-6.87-3-3.16-2.4-5.16,1.79-6.41,3.06-.91,6.09-.09,9.07.2,21.85,2.14,43.18,6.53,63.5,15.11,1.23.52,2.44,1.13,3.62,1.76C232.29,69.9,233.29,70.21,233.18,71.14Z" transform="translate(-9.31 -43.8)" fill="#e46353"/><path d="M96.93,59.17c-1.53,1.77-3.67,2.5-5.83,3.14C79.17,65.85,67,68.68,55.21,72.54c-5,1.62-9.79,3.57-14,6.79-3.33,2.56-6.21,5.45-6.17,10.15,0,1.89-1.37,2.08-2.86,1.83C27,90.4,21.78,84.07,21.78,77.62c.12-4.05,3.07-7.59,6.87-10.51,7.11-5.46,15.47-8.1,24-10.24C66,53.56,79.54,54,93.08,54.15a6.49,6.49,0,0,1,3.09.8C98,56,98.32,57.57,96.93,59.17Z" transform="translate(-9.31 -43.8)" fill="#e46353"/><path d="M252.35,135.41a18.06,18.06,0,0,1-3.59,6.25,40.56,40.56,0,0,1-15.2,11.23C227.69,155.38,225,154,223,148a18.52,18.52,0,0,1-1-6.34c0-10.24,6.49-16.78,17.13-17.47a19.59,19.59,0,0,1,8.21.94C252,126.86,253.85,130.68,252.35,135.41Z" transform="translate(-9.31 -43.8)" fill="#e46353"/><path d="M145.69,62c-4.47,5-14.32,6.51-20,3-5.12-3.14-5.19-8.07-.09-11.21a16,16,0,0,1,9.31-2.39A16.61,16.61,0,0,1,144.72,54C147.87,56.11,148.2,59.17,145.69,62Z" transform="translate(-9.31 -43.8)" fill="#e46353"/></svg>