<svg id="Layer_1" data-name="Layer 1" xmlns="http://www.w3.org/2000/svg" viewBox="0 0 511.99 402.6"><title>Xburger</title><path d="M501.3,294.2H490.1V253.5h11.7a10.2,10.2,0,0,0,0-20.4H490.1V192.4h11.2a10.24,10.24,0,0,0,10.2-10.2C511.5,81.7,429.8,0,329.3,0H182.7C82.2.1.5,81.8.5,182.3a10.24,10.24,0,0,0,10.2,10.2H21.9v40.7H10.2a10.2,10.2,0,0,0,0,20.4H21.9v40.7H10.7A10.24,10.24,0,0,0,.5,304.5v59.2a38.94,38.94,0,0,0,38.9,38.9H472.7a38.94,38.94,0,0,0,38.9-38.9V304.5A10.42,10.42,0,0,0,501.3,294.2ZM21.2,172.1C26.5,87.6,96.9,20.5,182.7,20.5H329.3c85.8,0,156.2,67.1,161.5,151.6Zm448.5,81.5v40.7H42.3V253.6ZM42.3,233.2V192.5H469.7v40.7ZM491.1,363.6a18.52,18.52,0,0,1-18.5,18.5H39.4a18.52,18.52,0,0,1-18.5-18.5v-49H491.1Z" transform="translate(-0.01 0)" fill="#ff5330"/><path d="M178.6,35.7h-4.1a10.2,10.2,0,1,0,0,20.4h4.1a10.2,10.2,0,1,0,0-20.4Z" transform="translate(-0.01 0)" fill="#ff8b01"/><path d="M229.5,35.7h-4.1a10.2,10.2,0,0,0,0,20.4h4.1a10.2,10.2,0,0,0,0-20.4Z" transform="translate(-0.01 0)" fill="#ff8b01"/><path d="M286.5,35.7h-4.1a10.2,10.2,0,1,0,0,20.4h4.1a10.2,10.2,0,0,0,0-20.4Z" transform="translate(-0.01 0)" fill="#ff8b01"/><path d="M337.4,35.7h-4.1a10.2,10.2,0,1,0,0,20.4h4.1a10.2,10.2,0,1,0,0-20.4Z" transform="translate(-0.01 0)" fill="#ff8b01"/><path d="M215.3,138.5h-6.1a10.2,10.2,0,0,0,0,20.4h6.1a10.2,10.2,0,0,0,0-20.4Z" transform="translate(-0.01 0)" fill="#ff8b01"/><path d="M170.5,138.5H51.4a10.2,10.2,0,1,0,0,20.4H170.5a10.2,10.2,0,0,0,0-20.4Z" transform="translate(-0.01 0)" fill="#ff8b01"/></svg>