<svg id="Layer_1" data-name="Layer 1" xmlns="http://www.w3.org/2000/svg" viewBox="0 0 241.25 387"><title>ddrinks</title><path d="M225,90.5a15.5,15.5,0,0,1,31,0,15.5,15.5,0,0,1,31,0c0,14.8-31,32.6-31,32.6S225,106.2,225,90.5Z" transform="translate(-135.38 -75)" fill="#ffabcb"/><path d="M256,90.5a15.5,15.5,0,0,1,31,0c0,14.8-31,32.6-31,32.6V90.5Z" transform="translate(-135.38 -75)" fill="#ff80aa"/><path d="M184.5,142.2V318.9A71.55,71.55,0,0,0,241.8,389v50.5h-34V462h96.5V439.6h-34V389a71.55,71.55,0,0,0,57.3-70.1V142.2Z" transform="translate(-135.38 -75)" fill="#ff5330"/><path d="M255.4,142.2V462h48.8V439.6h-34V389a71.55,71.55,0,0,0,57.3-70.1V142.2Z" transform="translate(-135.38 -75)" fill="#ff624d"/><path d="M255.5,369.8h0a56.93,56.93,0,0,1-56.9-56.9V199.1H312.4V312.9A56.93,56.93,0,0,1,255.5,369.8Z" transform="translate(-135.38 -75)" fill="#ff8b01"/><path d="M255.4,199.1V369.8h.6a56.93,56.93,0,0,0,56.9-56.9V199.1Z" transform="translate(-135.38 -75)" fill="#f9972d"/><path d="M227.5,348.2a6.75,6.75,0,0,1-6.8-6.1L195,110.4a10.26,10.26,0,0,0-5.2-7.8,10.09,10.09,0,0,0-9.4-.2l-35,17.5a6.93,6.93,0,0,1-6.2-12.4l35-17.5a23.67,23.67,0,0,1,22.1.4,24,24,0,0,1,12.4,18.4l25.7,231.7a6.87,6.87,0,0,1-6.1,7.6A2,2,0,0,1,227.5,348.2Z" transform="translate(-135.38 -75)" fill="#ffabcb"/><path d="M284.5,348.2h-.8a6.87,6.87,0,0,1-6.1-7.6l25.7-231.7a24,24,0,0,1,34.5-18.8l35,17.5a6.93,6.93,0,0,1-6.2,12.4l-35-17.5a10.09,10.09,0,0,0-9.4.2,9.64,9.64,0,0,0-5.2,7.8L291.3,342.2A6.9,6.9,0,0,1,284.5,348.2Z" transform="translate(-135.38 -75)" fill="#ff80aa"/></svg>