<svg id="Layer_1" data-name="Layer 1" xmlns="http://www.w3.org/2000/svg" viewBox="0 0 337.08 343.02"><title>MCB_Icon</title><path d="M115.27,148.43" transform="translate(-23.87 -21.98)" fill="#ff5330"/><path d="M237.63,157l-.18,1a200.73,200.73,0,0,0-34.51.36,163.91,163.91,0,0,0-33.4,6.56,109.2,109.2,0,0,0-29.94,14.48,89,89,0,0,0-22.76,23.33l-5.55,8.18-3.87-9.09c-3.54-8.28-6.87-16.69-10.25-25.06-2.45.47-4.85.75-7.33,1a94.82,94.82,0,0,1-11.82.51,70,70,0,0,1-23.62-4.1,44.55,44.55,0,0,1-19.92-14.28,43,43,0,0,1-6.17-10.63A58.57,58.57,0,0,1,24.9,137.7c-3-15.67.52-32.68,10.35-45.37A43.15,43.15,0,0,1,54.33,78,50.92,50.92,0,0,1,75.7,75.21c-.24.7-.44,1.4-.65,2.09l2.69-1.93c-.68-.08-1.37-.13-2-.16A75.26,75.26,0,0,1,88.29,51.37a52.7,52.7,0,0,1,23.23-17.22c9.16-3.41,19.15-3.77,28.55-2.19a98.39,98.39,0,0,1,26,8.36c-.23.31-.41.62-.62.93A95.07,95.07,0,0,0,139.78,34c-9.21-1.19-18.71-.47-27.18,3A49.51,49.51,0,0,0,91.49,53.84,71.46,71.46,0,0,0,80,78.44l-.52,2.09L77.3,80.4c-7.18-.44-14.43.26-20.91,2.89a37.08,37.08,0,0,0-16.1,12.8c-8.34,11.41-11,26.43-8,40.16a48.07,48.07,0,0,0,3.22,9.91,34.82,34.82,0,0,0,5.3,8.68,35.81,35.81,0,0,0,16.57,11.09A59.93,59.93,0,0,0,78,168.77,91.49,91.49,0,0,0,99,165.83l4.36-1.13,1.76,4.13c2.86,6.76,5.8,13.47,8.67,20.26a88.37,88.37,0,0,1,10.07-10.22l-2.69-13.3,5.63,10.82a89,89,0,0,1,7.35-5.22c.47-.28.91-.59,1.37-.87l-3.87-13.61,7.12,11.67a95.63,95.63,0,0,1,9.32-4.7l-2.63-12.44,6.12,11c2.78-1.16,5.6-2.17,8.46-3.05l-2.53-13.08L163.78,158c1.19-.34,2.38-.65,3.59-1,2-.46,3.93-.9,5.91-1.26l-2.53-12.31,6.48,11.58c3.67-.62,7.36-1.08,11.07-1.42l-2.94-13.88,7.31,13.55c2.55-.16,5.11-.26,7.66-.26l-1.19-14,5.68,14c5.22,0,10.38.44,15.49,1A127.22,127.22,0,0,1,237.63,157Z" transform="translate(-23.87 -21.98)" fill="#ff5330"/><path d="M77.74,75.37,75.05,77.3c.21-.69.41-1.39.65-2.09C76.37,75.24,77.06,75.29,77.74,75.37Z" transform="translate(-23.87 -21.98)" fill="#ff5330"/><path d="M167.11,40.83l-.43,1-1.27-.54c.21-.31.39-.62.62-.93C166.39,40.5,166.75,40.65,167.11,40.83Z" transform="translate(-23.87 -21.98)" fill="#ff5330"/><path d="M254.79,79.27c-2.4,19.17-14.53,36-30.92,45.6,3.85,5.89,8,11.77,9.58,13.37A5.17,5.17,0,0,1,231.1,148a3,3,0,0,1-.52,0c-2.37-.23-4.59-.46-17.19-20.31l-3.07-.23a51.16,51.16,0,0,0-6.3-.34l-6.35,0c-2.11,0-4.2.26-6.32.37a123,123,0,0,0-25,4.44,137.1,137.1,0,0,0-24,9.08,132,132,0,0,0-22.17,13.34l-.55-.56a89.28,89.28,0,0,1,9.89-8.75c1.75-1.35,3.54-2.66,5.34-3.95s3.67-2.45,5.58-3.62a119.61,119.61,0,0,1,24-11.4,61.72,61.72,0,0,1,6.4-2c2.14-.6,4.29-1.24,6.48-1.76A128.42,128.42,0,0,1,190.63,120a110.69,110.69,0,0,1,23.59-.33l2.06.15c.6-.31,1.19-.62,1.78-1a59,59,0,0,0,26.38-27.21A50.41,50.41,0,0,0,247,85.2a33.16,33.16,0,0,0,1.44-6.63c1.14-9.27.37-19-3.17-27.49a37,37,0,0,0-18.71-19.49A52.83,52.83,0,0,0,213,27.36,64.93,64.93,0,0,0,198.83,26c-9.44.13-18.86,3.36-25.68,10S162.06,51.7,159.58,61.07a101.63,101.63,0,0,0-3.18,29l-.77,0a103.58,103.58,0,0,1,2.14-29.56,62.87,62.87,0,0,1,7.64-19.35c.21-.31.39-.62.62-.93a41.71,41.71,0,0,1,5.06-6.38c7.07-7.48,17.42-11.48,27.59-11.89a67.31,67.31,0,0,1,15.15,1,57.8,57.8,0,0,1,14.71,4.18,42.33,42.33,0,0,1,21.81,21.58C254.64,58.46,255.69,69,254.79,79.27Z" transform="translate(-23.87 -21.98)" fill="#ff5330"/><path d="M111.4,53.25A46.9,46.9,0,0,0,103.11,66,51.45,51.45,0,0,0,99.24,80.1l-.36,3.67c-.11,1.23,0,2.48-.08,3.72-.23,2.49.24,5,.25,7.5.22,2.52.63,5,.86,7.61.44,2.54.91,5.09,1.16,7.76-1.33-2.28-2.46-4.68-3.61-7.09-.83-2.51-1.8-5-2.39-7.64a47.2,47.2,0,0,1-.95-16.18A38,38,0,0,1,99.58,64,27.92,27.92,0,0,1,111.4,53.25Z" transform="translate(-23.87 -21.98)" fill="#ff5330"/><path d="M45.26,127.78A61.92,61.92,0,0,0,54.53,140a37.61,37.61,0,0,0,12,8.22,21.28,21.28,0,0,0,3.4,1.25l1.72.6,1.79.36c1.2.23,2.39.57,3.62.72s2.47.18,3.72.31a20.59,20.59,0,0,0,3.77.1l3.84,0c2.57-.17,5.15-.51,7.86-.55a73.68,73.68,0,0,1-7.43,3.05l-4,.89a18.38,18.38,0,0,1-4,.56c-1.37.09-2.75.15-4.13.17s-2.76-.29-4.15-.43c-.69-.08-1.38-.17-2.07-.29l-2-.59a25,25,0,0,1-4-1.4,31.57,31.57,0,0,1-13-10.33A32.18,32.18,0,0,1,45.26,127.78Z" transform="translate(-23.87 -21.98)" fill="#ff5330"/><path d="M208.51,38.09A28.13,28.13,0,0,1,222,45.44a33.43,33.43,0,0,1,8.58,13.24,38.7,38.7,0,0,1,1.74,15.58,54.79,54.79,0,0,1-1.36,7.59A71,71,0,0,1,228.19,89c-.06-2.58.15-5,.25-7.5l-.07-3.67a25.67,25.67,0,0,0-.1-3.62c-.13-1.19-.24-2.38-.31-3.56a27.3,27.3,0,0,0-.57-3.49,49.66,49.66,0,0,0-1.7-6.77C222.63,51.6,216.71,44,208.51,38.09Z" transform="translate(-23.87 -21.98)" fill="#ff5330"/><path d="M169.41,364.81a29.4,29.4,0,0,1-30.75-18.61,7.76,7.76,0,0,1,7.23-10.56h0a7.73,7.73,0,0,1,7.21,5,13.87,13.87,0,1,0,13.09-18.84H126.86a52.11,52.11,0,0,1-9-103.44,7.73,7.73,0,0,1,9,7.66h0a7.74,7.74,0,0,1-6.39,7.62,36.62,36.62,0,0,0,6.39,72.67h39.2a29.36,29.36,0,0,1,3.35,58.53Z" transform="translate(-23.87 -21.98)" fill="#ff5330"/><path d="M266.3,364.81a29.36,29.36,0,0,1,3.35-58.53h39.2a36.61,36.61,0,0,0,6.38-72.67,7.74,7.74,0,0,1-6.38-7.62h0a7.73,7.73,0,0,1,9-7.66,52.11,52.11,0,0,1-9,103.44H269.51a13.89,13.89,0,0,0-13.73,14.31,14,14,0,0,0,13.47,13.43,13.89,13.89,0,0,0,13.35-8.9,7.74,7.74,0,0,1,7.22-5h0A7.75,7.75,0,0,1,297,346.2,29.38,29.38,0,0,1,266.3,364.81Z" transform="translate(-23.87 -21.98)" fill="#ff5330"/><path d="M246.15,269.1a28.92,28.92,0,0,1-28.8,26.84c-.67,0-1.34,0-2-.08a28.89,28.89,0,0,1-23.88-41.56,7.73,7.73,0,0,1,12.62-1.72l.1.12a7.63,7.63,0,0,1,1.13,8.55,13.39,13.39,0,0,0,11.11,19.18,13.4,13.4,0,0,0,11.77-21.25l-48.49-66.61a15.26,15.26,0,0,0-12.62-6c-8.36.24-14.87,7.4-14.87,15.77v81.19a7.74,7.74,0,0,1-7.74,7.74h0a7.74,7.74,0,0,1-7.75-7.74V202.66c0-17.28,13.89-31.75,31.17-31.56a30.64,30.64,0,0,1,24.07,12l48.75,66.95A29.08,29.08,0,0,1,246.15,269.1Z" transform="translate(-23.87 -21.98)" fill="#ff5330"/><path d="M297.82,202.64v81a7.66,7.66,0,0,1-7.66,7.66H290a7.66,7.66,0,0,1-7.66-7.66v-81.3c0-8.36-6.51-15.51-14.86-15.74a15.28,15.28,0,0,0-12.6,6L241.67,210.7a7.74,7.74,0,0,1-10.81,1.71h0a7.74,7.74,0,0,1-1.7-10.82l13.46-18.47a30.62,30.62,0,0,1,24.05-12C283.94,170.9,297.82,185.37,297.82,202.64Z" transform="translate(-23.87 -21.98)" fill="#ff5330"/></svg>