<svg id="Capa_1" data-name="Capa 1" xmlns="http://www.w3.org/2000/svg" viewBox="0 0 449 398.93"><title>sdpizza</title><path id="_Compound_Path_" data-name="&lt;Compound Path&gt;" d="M110.6,307.8a7,7,0,0,1-7,7h-1.9a7,7,0,1,1,0-14h1.9A7,7,0,0,1,110.6,307.8Zm-43-64.4H65.7a7,7,0,0,0,0,14h1.9a7,7,0,1,0,0-14ZM135.3,187h-1.9a7,7,0,1,0,0,14h1.9a7,7,0,0,0,0-14Zm43-91.7h-1.9a7,7,0,0,0,0,14h1.9a7,7,0,0,0,0-14Zm86.9,78.2a22.4,22.4,0,1,1,22.4,22.4A22.43,22.43,0,0,1,265.2,173.5Zm14,0a8.4,8.4,0,1,0,8.4-8.4A8.45,8.45,0,0,0,279.2,173.5ZM128.4,154.2A22.4,22.4,0,1,1,106,131.8,22.43,22.43,0,0,1,128.4,154.2Zm-14,0a8.4,8.4,0,1,0-8.4,8.4A8.45,8.45,0,0,0,114.4,154.2ZM75.2,187H73.3a7,7,0,0,0,0,14h1.9a7,7,0,0,0,0-14ZM213,109.3h1.9a7,7,0,0,0,0-14H213a7,7,0,0,0,0,14ZM362.4,300.7a7.22,7.22,0,0,0,3.2.8,7,7,0,0,0,6.2-3.8l.9-1.7a7,7,0,1,0-12.4-6.4l-.9,1.7A6.9,6.9,0,0,0,362.4,300.7ZM296,380.5a6.88,6.88,0,0,1-2.2,9.3,1.61,1.61,0,0,1-.7.4,195.58,195.58,0,0,1-194.7.1,4.88,4.88,0,0,0-.7-.3c-.2-.1-.4-.3-.6-.4-58.1-34-97.2-97-97.2-169a195.63,195.63,0,0,1,97.2-169c.2-.1.4-.3.6-.4a4.88,4.88,0,0,1,.7-.3,195.53,195.53,0,0,1,194.5,0,4.88,4.88,0,0,0,.7.3c.2.1.4.3.6.4,58.1,34,97.2,97,97.2,169h0a7,7,0,0,1-7,7H207.9l8.3,14.5c.2.2.3.5.5.7Zm-15.9,1L189.6,224.1a7.26,7.26,0,0,1,0-7,7.05,7.05,0,0,1,6.1-3.5H348.6a152.93,152.93,0,0,0-52.8-108.8A7,7,0,0,1,305,94.2a166.7,166.7,0,0,1,57.7,119.4h14.6A182,182,0,0,0,292.4,67L216.5,198.5a7,7,0,1,1-12.2-7L266,84.7A153.5,153.5,0,0,0,142.7,77a7,7,0,0,1-4.9-13.1A167.23,167.23,0,0,1,273,72.6L280.3,60a181.31,181.31,0,0,0-169.4,0l75.9,131.5a7,7,0,0,1-12.2,7L113.1,91.8A151.91,151.91,0,0,0,44.5,196.6a7,7,0,1,1-13.8-2.2A166.21,166.21,0,0,1,106.1,79.7L98.9,67A181.62,181.62,0,0,0,14.2,213.7H166a7,7,0,0,1,0,14H42.8A152.6,152.6,0,0,0,96.9,337.6a7,7,0,0,1-9.1,10.7A166.53,166.53,0,0,1,28.7,227.7H14.1A181.76,181.76,0,0,0,98.8,374.4l75.9-131.5a7.11,7.11,0,0,1,9.6-2.6,7,7,0,0,1,2.6,9.6L125.3,356.6a153.74,153.74,0,0,0,123.4,7.7,7,7,0,0,1,4.9,13.1,167.23,167.23,0,0,1-135.2-8.7l-7.3,12.6a181.27,181.27,0,0,0,169,.2Zm65.5-48.4a7.22,7.22,0,0,0,3.2.8,7,7,0,0,0,6.2-3.8l.9-1.7a7,7,0,1,0-12.4-6.4l-.9,1.7A7,7,0,0,0,345.6,333.1ZM320,299.4a7.22,7.22,0,0,0,3.2.8,7,7,0,0,0,6.2-3.8l.9-1.7a7,7,0,1,0-12.4-6.4L317,290A7,7,0,0,0,320,299.4Zm128.9-46.1A195.82,195.82,0,0,1,350.8,423a7.37,7.37,0,0,1-5.3.7,7,7,0,0,1-4.2-3.3l-94-163.6a7.26,7.26,0,0,1,0-7,7.05,7.05,0,0,1,6.1-3.5H442A7,7,0,0,1,448.9,253.3Zm-14.1,7H265.3l70.2,122.1a152.53,152.53,0,0,0,68.3-101.5,7,7,0,0,1,13.7,2.5,167,167,0,0,1-75.1,111.2l7.3,12.7A182.77,182.77,0,0,0,434.8,260.3ZM220.9,339.6h1.9a7,7,0,1,0,0-14h-1.9a7,7,0,1,0,0,14Zm-21.5-3.8A22.4,22.4,0,1,1,177,313.4,22.43,22.43,0,0,1,199.4,335.8Zm-14,0a8.4,8.4,0,1,0-8.4,8.4A8.45,8.45,0,0,0,185.4,335.8Zm1.1-56.4a7,7,0,0,0,7,7h1.9a7,7,0,0,0,0-14h-1.9A7,7,0,0,0,186.5,279.4Zm8.2-131.9h1.9a7,7,0,1,0,0-14h-1.9a7,7,0,0,0,0,14ZM139.1,262.1a22.4,22.4,0,1,1-22.4-22.4A22.43,22.43,0,0,1,139.1,262.1Zm-14,0a8.4,8.4,0,1,0-8.4,8.4A8.32,8.32,0,0,0,125.1,262.1Z" transform="translate(0.1 -25)" fill="#ff5331"/><ellipse cx="243.6" cy="176.66" rx="7.9" ry="7" transform="translate(-24.5 288.11) rotate(-62.91)" fill="#ff5331"/><ellipse cx="279.18" cy="118.93" rx="7.9" ry="7" transform="translate(46.28 288.35) rotate(-62.91)" fill="#ff5331"/></svg>