<svg id="Capa_1" data-name="Capa 1" xmlns="http://www.w3.org/2000/svg" viewBox="0 0 294.34 248.8"><title>Grice</title><path d="M262.9,116.1a14.58,14.58,0,0,0,1.9.7A14.58,14.58,0,0,1,262.9,116.1Z" transform="translate(-24.56 -47)" fill="#6ed3d3"/><path d="M287.1,156.1a43.49,43.49,0,0,1-6.6-11.1c-1.5-4.2-1.7-8.7-1.9-12.9a39.32,39.32,0,0,0-.7-7.3,27.53,27.53,0,0,1,.5,3.4c-4.1-1.4-8.8-2.9-12.7-6a30.45,30.45,0,0,1-6.6-7.8c.9.5,1.7.9,2.6,1.3a24.15,24.15,0,0,1-6-3.5c-3.8-3-6.3-7.2-8.5-10.8.3.5.7,1.1,1,1.7a45,45,0,0,0-6.2.3c-4.6.4-9.8.8-14.8-.7-4.8-1.5-8.7-4.7-12.2-7.5-2.9-2.4-5.9-4.9-8.2-5.2-2-.3-5.5,1.1-8.8,2.5-4.3,1.8-9.2,3.8-14.5,3.8s-10.2-2-14.5-3.8c-3.3-1.4-6.8-2.8-8.8-2.5-2.3.3-5.3,2.8-8.2,5.2-3.5,2.8-7.4,6-12.2,7.5-5,1.5-10.2,1.1-14.8.7-3.6-.3-7.3-.6-9.1.3-2.1,1.1-4.2,4.5-6.1,7.8-2.2,3.7-4.7,7.9-8.5,10.8-3.9,3.1-8.7,4.6-12.8,6-3.3,1.1-7.1,2.3-8.3,3.9-1.4,1.9-1.6,5.9-1.8,9.9-.2,4.2-.3,9.3-1.9,13.4-.2.6-.5-.4-.8,2.6H288C287.7,155,287.4,156.5,287.1,156.1Z" transform="translate(-24.56 -47)" fill="#6ed3d3"/><path d="M265.9,117.3c.9.3,1.8.6,2.6.9C267.7,117.9,266.8,117.6,265.9,117.3Z" transform="translate(-24.56 -47)" fill="#6ed3d3"/><path d="M277.5,123.1a3.33,3.33,0,0,0-.6-1A8.79,8.79,0,0,1,277.5,123.1Z" transform="translate(-24.56 -47)" fill="#6ed3d3"/><path d="M277.9,124.5c-.1-.4-.2-.7-.3-1.1C277.7,123.7,277.8,124.1,277.9,124.5Z" transform="translate(-24.56 -47)" fill="#6ed3d3"/><path d="M127.9,277h2.6v5h103v-4.7S155.7,277,127.9,277Z" transform="translate(-24.56 -47)" fill="#6ed3d3"/><path d="M118.3,277Z" transform="translate(-24.56 -47)" fill="#6ed3d3"/><path d="M127.2,277h0Z" transform="translate(-24.56 -47)" fill="#6ed3d3"/><path d="M53.6,181c1.5,26,10.6,47.8,24.5,64.1,12.5,10.6,27.6,16.9,43.8,16.9H225.2c38.5,0,70.7-34,77.3-81Z" transform="translate(-24.56 -47)" fill="#f9b378"/><path d="M100.5,95.4,90,88.8q-1.65,2.4-3,4.8c-1.6,2.7-3.3,5.5-4.8,6.7-1.9,1.5-5.1,2.5-8.2,3.6a55.29,55.29,0,0,0-9.2,3.7l4.8,4.2a43.78,43.78,0,0,1,6.4,7.3l2.7-.9a65.85,65.85,0,0,0,8-3.1c-1-1.4-1.9-2.8-2.9-4.1l7.2-8.1q2.85,1.5,6,3c1.1-1.6,2-3.2,2.9-4.7a44.12,44.12,0,0,1,3.1-4.8A18.61,18.61,0,0,1,100.5,95.4Zm210.8,61h-5.8a46.63,46.63,0,0,0-6.4-10.2c-1.9-2.5-3.7-4.9-4.4-6.8s-.8-4.9-1-8.1c-.2-5.7-.5-12.8-4.9-18.5-4-5.2-10.1-7.2-15.5-9-3.1-1-6.4-2.1-8.2-3.6-1.6-1.2-3.2-4-4.9-6.7C257.3,88.6,254,83,247.9,80c-5.6-2.8-11.7-2.3-17.2-1.9-3.4.3-6.9.6-9.1-.1-2-.6-4.5-2.7-7-4.8-4.3-3.5-9.2-7.5-15.6-8.5-6.1-.9-11.8,1.5-16.7,3.5-3.1,1.3-6.4,2.7-8.7,2.7s-5.6-1.4-8.7-2.7c-5-2.1-10.6-4.4-16.7-3.5-6.5.9-11.3,4.9-15.6,8.5-2.5,2-5.1,4.2-7,4.8-2.3.7-5.7.4-9.1.1-5.4-.5-11.6-1-17.2,1.9a23.79,23.79,0,0,0-8.7,7.9l10.5,6.5c.8.4,1.7.8,2.6,1.2a8,8,0,0,1,2.4-2.2c1.8-.9,5.5-.6,9.1-.3,4.6.4,9.8.8,14.8-.7,4.8-1.5,8.7-4.7,12.1-7.5,2.9-2.4,5.9-4.8,8.2-5.2,2-.3,5.5,1.1,8.8,2.5,4.3,1.8,9.2,3.8,14.5,3.8s10.2-2,14.5-3.8c3.3-1.4,6.8-2.8,8.8-2.5,2.3.3,5.3,2.8,8.2,5.2,3.5,2.8,7.4,6,12.2,7.5,5,1.5,10.2,1.1,14.8.7,3.6-.3,7.3-.6,9.1.3,2.1,1.1,4.2,4.5,6.1,7.8.3.5.7,1.1,1,1.7.2.4.5.8.7,1.2,1,1.5,2,3,3.2,4.5.2.2.4.5.6.7a9.43,9.43,0,0,0,1,1c.4.4.9.8,1.3,1.2a4.35,4.35,0,0,0,.7.6c.5.4,1,.7,1.4,1,.2.2.5.3.7.5a5.58,5.58,0,0,0,.8.5c.2.1.3.2.5.3s.2.1.3.1.1.1.2.1.2.1.3.2.2.1.3.1.2.1.3.1.3.1.5.2h0a.35.35,0,0,1,.2.1,1.69,1.69,0,0,0,.5.2c1.8.8,3.7,1.5,5.5,2.1.4.1.9.3,1.3.4,3.3,1.1,7.1,2.3,8.3,3.9.1.1.1.2.2.3s.1.1.1.2a2.19,2.19,0,0,0,.3.5,12.43,12.43,0,0,1,.9,4.2v1a2.77,2.77,0,0,0,.1.9v.5a6.15,6.15,0,0,0,.1,1.4v.8c.2,4.2.3,8.5,1.9,12.7s4.2,7.6,6.6,10.8c.3.4.5.7.8,1.1H59.2c.3-.4.5-.7.8-1.1,2.4-3.1,5.1-6.7,6.6-10.8s1.7-8.5,1.9-12.7c.2-3.9.3-8,1.8-9.9.8-1,2.6-1.8,4.6-2.6a43.59,43.59,0,0,0-6-6.9l-1.6-1.4-3.5-3a19.88,19.88,0,0,0-5.4,4.7c-4.4,5.7-4.7,12.8-4.9,18.5-.1,3.2-.2,6.1-1,8.1s-2.5,4.3-4.4,6.8a46.63,46.63,0,0,0-6.4,10.2H35.9a7.49,7.49,0,0,0-7.5,7.5c0,54.7,32.1,100.5,74.7,111.1v13.5a7.49,7.49,0,0,0,7.5,7.5H236.7a7.49,7.49,0,0,0,7.5-7.5V275c42.6-10.6,74.7-56.4,74.7-111.1A7.71,7.71,0,0,0,311.3,156.4ZM229.1,281.1H118v-3.8c1.3.1,109.8.1,111.1,0Zm-3.9-18.8H121.9c-41.3,0-75.3-40.1-78.4-90.8h260C300.5,222.2,266.5,262.3,225.2,262.3Z" transform="translate(-24.56 -47)" fill="#ff5330"/><path d="M200.2,160.3c-.1-.8-.3-1.6-.4-2.4l-.3-1.5a44.17,44.17,0,0,0-14-23.1c-12.5-10.8-34.1-18.6-55-26.2l-1.8-.7c-3.3-1.2-6.5-2.4-9.7-3.5-5.8-2.2-11.3-4.3-16-6.5a25.57,25.57,0,0,0-2.4-1.1L90.1,88.7l-1.7-1.1-9.2-8a20.69,20.69,0,0,0-.6-25.9A20.13,20.13,0,0,0,63.4,47a19.86,19.86,0,0,0-15,6.9A20.26,20.26,0,0,0,43.6,69a19.91,19.91,0,0,0-16.3,9.8,20.42,20.42,0,0,0,1.6,22.8,20.09,20.09,0,0,0,15.3,7.5h.3a19.81,19.81,0,0,0,14.7-6.4l2,1.7,3.6,3.1,4.8,4.2A43.78,43.78,0,0,1,76,119a129.73,129.73,0,0,1,7.1,11.2h0c3.4,5.8,6.9,12.4,10.5,19.2,1.2,2.3,2.5,4.7,3.7,7,.3.5.5,1,.8,1.5.4.8.9,1.6,1.3,2.4l.1.2,17.9,9.7v.2l.3-.4-.7-1.2c-2.1-3.5-4.2-7.2-6.3-10.9a10.93,10.93,0,0,1-.8-1.5c-2.3-4.1-4.5-8.3-6.6-12.3-3.2-6-6.4-12-9.6-17.7-2.3-4-4.6-7.9-7-11.3-1-1.4-1.9-2.8-2.9-4.1l7.2-8.1q2.85,1.5,6,3c3.9,1.9,8.3,3.7,12.9,5.4,4.9,1.9,10.2,3.8,15.5,5.8l1,.4c19.9,7.2,40.5,14.6,51.6,24.2a33.22,33.22,0,0,1,9.8,14.7c.2.5.3,1,.5,1.5a35.83,35.83,0,0,1,.9,4.5l.1,1.1,11-2.3ZM61.4,90.2a5.49,5.49,0,0,0-3.7-1.4,3,3,0,0,0-1.3.2,5.56,5.56,0,0,0-3.9,3.4A8.09,8.09,0,0,1,51,95a8.9,8.9,0,0,1-6.8,3.1v1l-.1-1a8.76,8.76,0,0,1-6.9-3.4,8.9,8.9,0,0,1-.7-10.1,9.11,9.11,0,0,1,7.8-4.5,7.57,7.57,0,0,1,1.5.1,6.6,6.6,0,0,0,1.4.1,8.74,8.74,0,0,0,6.2-2.8,7.72,7.72,0,0,0,1.5-7.4,9.07,9.07,0,0,1,1.7-8.8,9.2,9.2,0,0,1,6.7-3.1,8.75,8.75,0,0,1,6.8,3.1A9,9,0,0,1,72,68.4,8,8,0,0,1,67.7,75a5.59,5.59,0,0,0-2.8,4.3A5.23,5.23,0,0,0,66.8,84L81.6,96.8,76.2,103Z" transform="translate(-24.56 -47)" fill="#ff5330"/></svg>