<svg id="Layer_1" data-name="Layer 1" xmlns="http://www.w3.org/2000/svg" viewBox="0 0 511.97 352.23"><title>Fsey-food</title><path d="M496.9,240.3h0a5.8,5.8,0,0,1,0-3.2l14-41.3a20.2,20.2,0,0,0-29.3-23.9l-36.9,21.6a11.31,11.31,0,0,1-12-.3c-3-2-6.2-3.9-9.5-5.9,12.1-21.7,14.2-46.5,14.3-47.6a7.41,7.41,0,0,0-4.5-7.5,136.21,136.21,0,0,0-41.1-10,133.16,133.16,0,0,0-16.6-38.9,7.56,7.56,0,0,0-8.2-3.2c-1.5.4-27.1,6.9-46.9,23.6C300,87.9,274.1,82.4,273,82.2a7.62,7.62,0,0,0-8,3.5c-.6,1-12.9,21.6-16,45.8-1.7,0-3.3-.1-5-.1-45.3,0-92.4,11.6-140,34.5C43.3,195,4,231.7,2.4,233.2a7.5,7.5,0,0,0,0,11c1.6,1.5,40.9,38.2,101.5,67.3,4.7,2.3,9.4,4.4,14.1,6.5-15.7,23-18.3,52.8-18.4,54.2a7.41,7.41,0,0,0,4.5,7.5,138.16,138.16,0,0,0,41.1,10.1c5,21.2,16.1,38.1,16.6,38.9a7.41,7.41,0,0,0,6.3,3.4,11,11,0,0,0,1.8-.2c1.5-.4,27.1-6.9,46.9-23.6,20.5,15.8,46.4,21.3,47.5,21.5a7.21,7.21,0,0,0,8-3.5c1.1-1.9,27.3-46.1,11.8-81.5a8,8,0,0,0-.8-1.6c60.5-8.7,113.3-35.7,149.4-59a11.3,11.3,0,0,1,12-.3l36.9,21.6a20.2,20.2,0,0,0,29.3-23.9Zm-86.7-60.6a413.54,413.54,0,0,0-62.9-29.1,60.29,60.29,0,0,1,8.1-5.2c1-.6,2.1-1.2,3.2-1.8,8.1-4.8,17.5-6.4,26.8-6.4h.8c14.5.2,28.4,4.4,35.6,7C420.6,151.9,417.4,166.6,410.2,179.7Zm-33.8-57.3a61.43,61.43,0,0,0-25.6,8.1l-3,1.8c-5.9,3.4-11.6,6.7-16.3,13.1-5.8-1.8-11.7-3.4-17.7-4.9a30.92,30.92,0,0,1,1.7-5.4c8.8-22.6,38-34.4,50.2-38.5A115,115,0,0,1,376.4,122.4Zm-101.1-24c7.7,2.2,22.3,7.2,34.5,16.3a59.41,59.41,0,0,0-8.5,14.7,61.2,61.2,0,0,0-2.4,7.6,283,283,0,0,0-34.8-4.8C266.2,118.1,271.9,105.2,275.3,98.4Zm-171,84.2c.1.2.3.5.4.7a10.93,10.93,0,0,1,.8,1.5,17.38,17.38,0,0,1,1,1.9c.3.5.5,1,.8,1.5.3.7.7,1.3,1,2,.2.5.5,1,.7,1.5l.9,2.1.6,1.5c.3.8.6,1.5.9,2.3a6.94,6.94,0,0,1,.5,1.3c.4,1.1.8,2.1,1.2,3.2.1.2.1.3.2.5.4,1.2.8,2.4,1.2,3.7a9.29,9.29,0,0,0,.4,1.3c.2.8.5,1.6.7,2.5.1.5.3,1,.4,1.5a18.92,18.92,0,0,1,.5,2.3c.1.5.2,1.1.3,1.6.2.7.3,1.5.5,2.2.1.5.2,1.1.3,1.6.1.7.3,1.5.4,2.2a8.75,8.75,0,0,1,.2,1.6c.1.8.2,1.5.3,2.3.1.5.1,1.1.2,1.6a19.42,19.42,0,0,1,.2,2.4c0,.5.1,1,.1,1.5a22.6,22.6,0,0,1,.1,2.6,5.7,5.7,0,0,0,.1,1.3c0,1.3.1,2.6.1,3.9s0,2.6-.1,3.9a5.7,5.7,0,0,1-.1,1.3c0,.9-.1,1.8-.1,2.6,0,.5-.1,1-.1,1.5-.1.8-.1,1.6-.2,2.4-.1.5-.1,1.1-.2,1.6-.1.8-.2,1.5-.3,2.3a10,10,0,0,0-.2,1.6,17,17,0,0,1-.4,2.2c-.1.5-.2,1.1-.3,1.6a17.42,17.42,0,0,1-.5,2.2c-.1.5-.2,1.1-.3,1.6-.2.8-.4,1.5-.6,2.3a8.33,8.33,0,0,1-.4,1.5c-.2.8-.5,1.6-.7,2.5a6.47,6.47,0,0,1-.4,1.3c-.4,1.2-.8,2.5-1.2,3.7-.1.2-.1.3-.2.5-.4,1.1-.8,2.1-1.2,3.2-.2.4-.3.9-.5,1.3-.3.8-.6,1.5-.9,2.3l-.6,1.5-.9,2.1c-.2.5-.5,1-.7,1.5a18.65,18.65,0,0,1-1,2c-.3.5-.5,1-.8,1.5s-.7,1.3-1,1.9a10.93,10.93,0,0,0-.8,1.5c-.1.2-.3.5-.4.7a441.91,441.91,0,0,1-85.3-56.2A459,459,0,0,1,104.3,182.6ZM132.4,324a327.87,327.87,0,0,0,67.4,18.5c-4.4,9.7-11.1,20-21.2,26-8.1,4.8-17.6,6.4-27,6.4h-.1c-14.7-.1-28.8-4.3-36.1-7C117,358.4,121.3,338.5,132.4,324Zm28.4,65.7a61.43,61.43,0,0,0,25.6-8.1c12.4-7.4,22.2-19.8,29.1-37,2.5.3,5,.5,7.4.7,2.9,10.4,3.6,19.6-1.2,31.9-8.8,22.6-38.1,34.5-50.2,38.5A135.84,135.84,0,0,1,160.8,389.7Zm109.4-38.8c9.8,22.3-2.5,51.3-8.3,62.7-7.7-2.2-22.3-7.2-34.5-16.2a61,61,0,0,0,11.4-51.3c1.7,0,3.4.1,5.2.1,7.8,0,15.5-.4,23.1-1A31.48,31.48,0,0,1,270.2,350.9ZM495,292a4.63,4.63,0,0,1-5.6.4l-36.9-21.6a26.47,26.47,0,0,0-27.9.6c-36.6,23.6-91,51.2-152.7,58a7.51,7.51,0,0,0-4.2.4c-7.8.7-15.7,1.1-23.7,1.1a254.12,254.12,0,0,1-32.4-2.1h-.1c-30.5-3.8-61.7-13-93.3-27.3.1-.1.1-.2.2-.3a7.46,7.46,0,0,1,.7-1.2c.5-.9,1-1.8,1.4-2.6.3-.5.5-1,.8-1.5.4-.8.8-1.6,1.2-2.5a11.11,11.11,0,0,0,.7-1.6c.4-.8.7-1.6,1.1-2.4.2-.5.5-1.1.7-1.6.3-.8.7-1.6,1-2.5.2-.5.4-1.1.6-1.6a27.73,27.73,0,0,1,1-2.6,8.8,8.8,0,0,0,.5-1.5,29.92,29.92,0,0,0,1-3.2c.1-.3.2-.7.3-1l1.2-4.2c.1-.4.2-.7.3-1.1.3-1.1.5-2.1.8-3.2.1-.5.2-1,.3-1.6l.6-2.7c.1-.6.2-1.2.3-1.7a23.36,23.36,0,0,0,.4-2.6l.3-1.8c.1-.9.2-1.7.3-2.6.1-.6.1-1.2.2-1.8a24.52,24.52,0,0,0,.2-2.7c0-.6.1-1.1.1-1.7.1-1,.1-2,.2-3,0-.5.1-1,.1-1.4.1-1.5.1-3,.1-4.4s0-3-.1-4.4a6.15,6.15,0,0,0-.1-1.4c0-1-.1-2-.2-3,0-.6-.1-1.1-.1-1.7a24.52,24.52,0,0,1-.2-2.7c-.1-.6-.1-1.2-.2-1.8-.1-.9-.2-1.7-.3-2.6l-.3-1.8c-.1-.9-.3-1.7-.4-2.6-.1-.6-.2-1.2-.3-1.7l-.6-2.7c-.1-.5-.2-1.1-.3-1.6-.2-1.1-.5-2.1-.8-3.2-.1-.4-.2-.7-.3-1.1l-1.2-4.2c-.1-.3-.2-.7-.3-1-.3-1.1-.7-2.1-1-3.1a8.8,8.8,0,0,1-.5-1.5c-.3-.9-.6-1.7-.9-2.6-.2-.6-.4-1.1-.6-1.6-.3-.8-.7-1.6-1-2.4-.2-.6-.5-1.1-.7-1.7a25.57,25.57,0,0,0-1.1-2.4c-.3-.5-.5-1.1-.8-1.6l-1.2-2.4c-.3-.5-.5-1-.8-1.5-.4-.9-.9-1.7-1.4-2.6-.2-.4-.5-.9-.7-1.3a.37.37,0,0,1-.1-.3c43-19.5,85.3-29.4,125.8-29.4,73.2,0,138.6,32.4,180.6,59.5a26.47,26.47,0,0,0,27.9.6l36.9-21.6a4.94,4.94,0,0,1,7.2,5.8l-14,41.3a20.34,20.34,0,0,0,0,12.9l14,41.3A4.91,4.91,0,0,1,495,292Z" transform="translate(0 -79.87)" fill="#ff5331"/><path d="M217.1,201.2a7.6,7.6,0,0,0-7.6,7.6v59.9a7.6,7.6,0,0,0,15.2,0V208.8A7.6,7.6,0,0,0,217.1,201.2Z" transform="translate(0 -79.87)" fill="#ff5331"/><path d="M244.9,201.2a7.6,7.6,0,0,0-7.6,7.6v59.9a7.6,7.6,0,0,0,15.2,0V208.8A7.6,7.6,0,0,0,244.9,201.2Z" transform="translate(0 -79.87)" fill="#ff5331"/><path d="M273.9,201.2a7.6,7.6,0,0,0-7.6,7.6v59.9a7.6,7.6,0,0,0,15.2,0V208.8A7.6,7.6,0,0,0,273.9,201.2Z" transform="translate(0 -79.87)" fill="#ff5331"/><path d="M92.7,238.7l5.4-5.4a7.57,7.57,0,1,0-10.7-10.7L82,228l-5.4-5.4a7.57,7.57,0,1,0-10.7,10.7l5.4,5.4-5.4,5.4A7.55,7.55,0,0,0,71.3,257a7.64,7.64,0,0,0,5.4-2.2l5.4-5.4,5.4,5.4a7.6,7.6,0,0,0,10.8-10.7Z" transform="translate(0 -79.87)" fill="#ff5331"/></svg>